<mxfile host="app.diagrams.net" modified="2023-10-31T11:49:56.865Z" agent="Mozilla/5.0 (Windows NT 10.0; Win64; x64; rv:109.0) Gecko/20100101 Firefox/119.0" version="22.0.8" etag="EaYsAgK5aFT6itko29hP" type="github">
  <diagram name="Page-1" id="RR6vkeot9K7ILk1plrA4">
    <mxGraphModel>
      <root>
        <mxCell id="0" />
        <mxCell id="1" parent="0" />
      </root>
    </mxGraphModel>
  </diagram>
</mxfile>
